<svg xmlns="http://www.w3.org/2000/svg" viewBox="0 0 1000 700">
  <rect width="1000" height="700" fill="white"/>
  <path fill="black" d="
    M 170 575
    C 138 575, 115 555, 104 525
    C 92 491, 98 463, 116 426
    L 296 88
    L 508 88
    L 380 391
    C 354 454, 336 500, 333 522
    C 329 552, 345 575, 383 575
    L 772 575
    C 772 611, 745 636, 706 636
    L 184 636
    C 176 636, 170 632, 165 626
    C 158 619, 154 612, 150 603
    C 145 592, 151 582, 170 575
    Z"/>
  <path fill="black" d="
    M 554 565
    C 489 519, 469 455, 482 388
    C 500 294, 585 205, 736 141
    C 633 219, 569 320, 547 447
    C 541 483, 540 521, 554 565
    Z"/>
  <path fill="black" d="
    M 712 565
    C 649 518, 630 453, 644 386
    C 663 294, 750 204, 907 139
    C 796 219, 730 322, 711 450
    C 706 486, 706 523, 712 565
    Z"/>
</svg>
