<svg xmlns="http://www.w3.org/2000/svg" viewBox="0 0 1000 700"> <rect width="1000" height="700" fill="white"/> <path fill="black" d="M 296 88 L 508 88 L 390 387 C 372 430, 357 468, 349 497 C 341 526, 344 547, 358 561 C 369 571, 387 575, 414 575 L 772 575 C 772 611, 745 636, 706 636 L 184 636 C 170 636, 159 631, 151 620 C 143 609, 140 596, 143 582 C 146 566, 154 547, 168 521 L 326 223 C 355 168, 375 129, 388 106 C 396 93, 406 88, 421 88 Z"/> <path fill="black" d="M 554 565 C 489 519, 469 455, 482 388 C 500 294, 585 205, 736 141 C 633 219, 569 320, 547 447 C 541 483, 540 521, 554 565 Z"/> <path fill="black" d="M 712 565 C 649 518, 630 453, 644 386 C 663 294, 750 204, 907 139 C 796 219, 730 322, 711 450 C 706 486, 706 523, 712 565 Z"/> </svg>